<?xml version="1.0" standalone="no"?>
<!DOCTYPE svg PUBLIC "-//W3C//DTD SVG 20010904//EN"
 "http://www.w3.org/TR/2001/REC-SVG-20010904/DTD/svg10.dtd">
<svg version="1.0" xmlns="http://www.w3.org/2000/svg"
 width="110.000000pt" height="110.000000pt" viewBox="0 0 110.000000 110.000000"
 preserveAspectRatio="xMidYMid meet">
<metadata>
Created by potrace 1.11, written by Peter Selinger 2001-2013
</metadata>
<g transform="translate(0.000000,110.000000) scale(0.100000,-0.100000)"
fill="#000000" stroke="none">
<path d="M542 968 c2 -7 -3 -12 -10 -10 -8 1 -11 -2 -8 -7 3 -5 -1 -12 -10
-15 -13 -5 -14 -9 -5 -20 9 -10 9 -16 1 -21 -6 -4 -9 -14 -8 -23 2 -9 -5 -18
-14 -20 -10 -2 -18 2 -18 8 0 6 6 8 13 4 6 -4 9 -4 5 1 -4 4 -3 16 2 26 7 12
6 20 -2 25 -7 4 -10 4 -7 0 4 -4 -17 -30 -47 -58 -29 -28 -51 -55 -48 -59 3
-5 9 -7 13 -5 4 3 12 -4 19 -15 14 -21 3 -26 -17 -6 -8 6 -6 0 4 -15 17 -27
45 -38 45 -18 0 5 -8 7 -17 4 -15 -5 -15 -3 2 10 16 14 20 14 27 2 10 -18 -1
-48 -15 -39 -6 4 -7 1 -3 -6 5 -7 11 -10 14 -7 3 3 11 1 19 -5 9 -9 13 -8 13
0 0 6 -4 11 -10 11 -5 0 -10 5 -10 11 0 5 5 7 11 4 6 -4 9 0 7 10 -2 10 2 20
8 22 13 4 11 -42 -4 -78 -10 -25 -45 -38 -35 -14 7 20 -40 65 -70 67 -16 2
-33 8 -39 15 -15 18 -70 -24 -59 -46 4 -9 7 -29 6 -46 -3 -32 19 -65 42 -65 7
0 13 -4 13 -10 0 -5 -10 -9 -22 -7 -19 2 -23 -2 -20 -22 2 -21 0 -22 -15 -10
-15 11 -16 11 -5 -1 17 -19 15 -26 -6 -26 -14 0 -19 8 -19 28 0 15 4 25 9 22
5 -4 15 2 23 12 16 23 1 36 -30 28 -18 -4 -17 -3 4 15 13 12 18 21 12 21 -7 0
-9 5 -5 12 5 7 3 8 -6 3 -9 -6 -12 -4 -8 7 4 8 1 15 -7 15 -7 0 -10 -8 -7 -19
2 -10 -1 -18 -7 -18 -7 0 -9 5 -5 12 4 7 3 8 -5 4 -18 -12 -1 -27 22 -20 21 6
21 5 5 -12 -16 -16 -19 -16 -36 -1 -17 15 -19 14 -43 -16 -26 -33 -34 -54 -18
-49 12 3 12 -35 0 -42 -8 -5 -39 23 -33 31 1 1 0 3 -3 3 -7 0 -5 -12 3 -25 11
-16 66 -61 58 -47 -5 7 -1 12 9 12 12 0 15 -5 11 -16 -9 -22 21 -54 42 -46 15
5 15 4 2 -14 -8 -10 -10 -16 -6 -12 5 4 19 -6 32 -23 12 -17 25 -26 28 -21 3
6 -1 13 -10 16 -8 3 -12 10 -9 16 3 6 0 12 -7 15 -8 3 -14 14 -15 25 -1 12 3
17 12 14 7 -3 16 -1 19 4 3 5 18 7 33 5 16 -2 33 -5 39 -5 6 -1 11 -14 11 -29
0 -24 -3 -26 -18 -18 -26 14 -37 34 -13 25 14 -5 16 -4 7 5 -6 6 -16 8 -22 5
-15 -10 -2 -34 22 -43 34 -11 48 -12 42 -3 -3 5 0 10 6 12 14 5 22 115 8 123
-5 4 -6 12 -3 18 5 8 3 8 -7 0 -7 -7 -18 -13 -24 -13 -5 1 1 10 14 20 l23 20
-22 -2 c-13 -2 -25 2 -27 9 -3 8 3 11 16 8 30 -5 42 -15 36 -26 -4 -5 -2 -9 3
-9 19 0 16 -128 -4 -158 -25 -38 -95 -18 -105 30 -3 11 -9 15 -17 9 -9 -6 -7
-16 13 -45 28 -41 31 -50 13 -40 -10 5 -10 3 0 -7 7 -8 17 -14 23 -14 5 0 9
-4 10 -10 0 -5 7 -14 15 -18 17 -10 19 -44 2 -50 -7 -3 1 -6 17 -6 17 0 26 3
20 7 -17 12 -17 42 -1 48 22 8 10 24 -14 19 -11 -2 -23 1 -26 7 -5 7 -2 8 6 3
9 -5 11 -4 6 4 -4 6 -11 9 -16 6 -5 -3 -11 -1 -14 4 -4 6 14 9 43 8 27 -2 48
0 45 4 -6 10 22 30 31 21 5 -4 5 1 2 11 -4 12 -1 17 11 18 9 0 12 3 6 5 -7 3
-10 14 -7 24 8 31 20 23 20 -12 0 -59 3 -68 18 -68 9 0 12 6 9 18 -5 16 -5 16
6 -1 12 -19 5 -41 -11 -32 -5 4 -9 1 -9 -4 0 -18 18 -12 45 14 14 14 25 21 25
14 0 -7 9 -9 25 -5 15 4 25 2 25 -4 0 -6 -4 -9 -9 -5 -5 3 -13 1 -16 -5 -5 -8
-11 -8 -20 0 -10 8 -15 8 -21 -2 -4 -7 -4 -10 1 -6 4 4 15 3 22 -4 11 -9 17
-9 24 3 5 8 9 10 9 5 0 -5 7 -3 16 5 21 18 54 19 54 2 0 -8 -4 -11 -10 -8 -5
3 -10 1 -10 -5 0 -7 7 -9 16 -6 9 3 18 6 20 6 3 0 3 4 0 9 -3 5 6 12 20 15 22
6 25 11 20 31 -4 15 -2 25 4 25 6 0 8 -6 4 -12 -5 -9 -2 -9 9 1 19 15 23 1 5
-17 -9 -9 -7 -13 5 -18 9 -3 14 -10 11 -16 -4 -5 -11 -5 -19 2 -9 8 -20 2 -43
-24 -17 -19 -33 -44 -37 -55 -9 -31 -25 -26 -25 8 0 17 -6 31 -16 35 -23 9
-34 -2 -34 -33 0 -16 -7 -34 -15 -41 -8 -7 -12 -17 -9 -22 4 -6 -3 -8 -17 -4
-20 6 -21 5 -6 -4 18 -12 41 -5 32 10 -3 4 2 11 11 14 24 9 28 7 14 -9 -10
-12 -10 -15 0 -15 8 0 10 -3 6 -7 -7 -8 -11 -9 -37 -12 -6 0 -9 -7 -6 -15 4
-10 0 -14 -14 -13 -21 1 -27 17 -6 17 6 0 4 5 -6 11 -13 7 -22 7 -31 0 -7 -6
-16 -8 -19 -4 -9 9 -9 23 1 22 17 -3 32 2 32 9 0 14 -59 8 -74 -8 -14 -14 -13
-17 5 -28 12 -8 18 -9 14 -3 -3 6 -2 11 4 11 15 0 23 -18 11 -25 -6 -3 3 -17
20 -31 30 -26 61 -25 40 1 -8 9 -8 15 0 20 5 3 10 1 10 -6 0 -13 88 60 89 75
1 5 -5 3 -12 -3 -11 -9 -14 -5 -15 18 -1 29 0 29 18 11 19 -19 50 -18 50 1 0
5 8 9 18 9 14 0 15 -2 2 -10 -10 -7 5 -9 50 -8 36 0 52 3 35 5 l-29 5 24 19
c24 19 25 20 6 34 -25 19 -44 4 -40 -30 3 -34 -12 -31 -32 6 -15 29 -15 33 2
48 16 15 16 15 10 -4 -6 -20 -6 -20 9 -1 8 11 15 16 15 12 0 -5 7 -3 15 4 9 7
13 15 11 17 -8 9 19 31 29 25 6 -3 4 2 -3 11 -16 19 -23 65 -11 73 9 5 10 4
14 -34 1 -12 6 -26 10 -30 5 -4 5 1 2 10 -3 10 -2 20 3 23 5 3 10 0 12 -7 2
-8 25 9 53 38 l50 52 -35 -2 c-19 -1 -35 -6 -35 -13 0 -6 -3 -15 -7 -19 -14
-14 -7 31 7 50 8 11 15 15 15 9 0 -6 16 -10 35 -10 19 1 35 5 35 9 0 4 -5 8
-11 8 -5 0 -8 4 -5 9 6 9 -12 28 -26 30 -5 1 -9 4 -10 9 -1 4 -15 18 -30 31
-25 20 -31 21 -45 10 -15 -12 -16 -12 -9 6 6 16 5 17 -5 8 -10 -10 -9 -15 1
-28 7 -8 8 -15 2 -15 -17 0 -31 25 -22 40 5 8 7 17 4 21 -2 4 0 10 6 14 5 3
10 2 10 -3 0 -6 8 -13 17 -16 15 -6 15 -4 -2 14 -17 19 -19 19 -37 4 -19 -18
-26 -6 -7 13 7 7 -1 23 -30 54 -38 41 -41 43 -57 27 -14 -14 -15 -20 -4 -32
14 -18 0 -22 -17 -5 -8 8 -13 8 -17 0 -4 -6 -12 -11 -18 -11 -6 0 4 15 22 34
18 18 32 37 30 42 -5 16 -170 175 -168 162z m84 -100 c1 -18 -7 -23 -19 -11
-4 3 -2 12 5 20 9 11 7 12 -7 7 -12 -5 -16 -4 -11 4 9 15 -26 33 -44 22 -9 -5
-19 -5 -27 2 -10 8 -8 14 8 27 20 16 23 15 57 -19 20 -19 37 -43 38 -52z m-41
22 c-8 -13 31 -54 44 -46 6 4 9 12 6 17 -11 17 4 9 30 -16 30 -31 30 -30 5
-32 -11 -1 -19 1 -19 5 4 28 -2 34 -15 17 -13 -18 -15 -18 -43 11 -34 33 -78
42 -62 13 12 -24 12 -25 -11 -25 -21 0 -25 7 -13 20 4 4 8 15 8 24 0 10 7 16
17 14 9 -1 19 2 23 7 3 6 12 8 20 5 8 -4 13 -10 10 -14z m-116 -16 c-12 -15
-11 -19 9 -32 27 -18 28 -28 1 -43 -18 -9 -20 -8 -15 8 8 25 -6 44 -24 33 -13
-8 -12 -10 3 -10 9 0 17 -4 17 -10 0 -12 -22 -9 -33 5 -5 6 -7 3 -4 -7 4 -12
0 -16 -14 -15 -16 1 -12 8 23 44 42 43 63 58 37 27z m167 -53 c12 10 15 10 12
-2 -2 -10 6 -13 32 -12 l35 2 -37 -34 c-37 -35 -61 -48 -38 -20 10 12 10 15 0
15 -7 0 -10 8 -8 18 4 12 -1 18 -13 18 -14 0 -15 -3 -7 -14 8 -10 7 -17 -5
-29 -14 -14 -15 -13 -13 22 3 32 1 36 -8 23 -8 -11 -17 -13 -28 -7 -14 8 -17
27 -9 68 1 1 17 -11 37 -28 29 -26 39 -30 50 -20z m-106 -6 c0 -8 -4 -15 -10
-15 -5 0 -10 7 -10 15 0 8 5 15 10 15 6 0 10 -7 10 -15z m-52 -26 c15 7 35 7
100 -1 7 -1 10 -8 7 -17 -6 -21 9 -45 26 -39 8 3 22 1 32 -4 12 -6 23 -6 31 1
10 8 17 7 27 -5 12 -15 11 -16 -8 -10 -12 4 -24 2 -28 -4 -4 -7 -12 -7 -26 1
-12 6 -23 8 -26 6 -2 -3 5 -8 16 -12 12 -3 21 -11 21 -16 0 -6 -4 -7 -10 -4
-5 3 -10 1 -10 -5 0 -6 8 -9 18 -6 13 4 18 1 18 -14 0 -21 -11 -26 -21 -10 -4
6 -11 8 -16 5 -5 -4 -9 5 -9 18 0 32 -30 58 -63 55 -15 -1 -27 -6 -27 -10 0
-4 -5 -8 -10 -8 -6 0 -8 11 -6 24 2 14 -2 33 -11 43 -8 10 -12 13 -9 7 3 -7 0
-17 -8 -23 -10 -9 -15 -8 -20 4 -3 9 -10 13 -16 10 -18 -11 -32 5 -19 22 11
12 14 12 21 -1 6 -11 14 -13 26 -7z m267 -39 c0 -13 7 -25 15 -27 13 -4 13 -3
0 6 -8 5 -11 14 -6 18 5 4 11 2 13 -5 3 -7 11 -18 18 -26 10 -9 11 -16 3 -24
-12 -12 -1 -35 14 -26 6 4 6 -1 -1 -14 -8 -15 -7 -23 4 -32 8 -7 15 -16 15
-19 0 -14 -62 -5 -71 10 -5 9 -9 10 -9 2 0 -6 5 -15 10 -18 7 -4 7 -13 0 -26
-6 -10 -8 -20 -5 -20 3 -1 10 -3 15 -4 6 -1 16 -3 22 -4 8 0 4 -9 -9 -22 -32
-33 -42 -16 -41 70 0 43 -2 84 -6 90 -4 6 0 12 8 12 29 3 34 4 41 11 4 4 -8 5
-27 3 -18 -3 -27 -2 -20 1 10 5 10 11 -3 30 -16 25 -12 48 8 41 7 -2 12 -14
12 -27z m-120 1 c-3 -6 -11 -11 -17 -11 -6 0 -6 6 2 15 14 17 26 13 15 -4z
m-296 -32 c-13 -9 -28 -15 -33 -11 -5 3 0 10 12 15 12 6 22 14 22 19 0 5 5 6
11 2 8 -4 4 -13 -12 -25z m93 -27 c10 -8 15 -18 13 -23 -3 -4 -1 -10 5 -14 5
-3 10 -11 10 -17 0 -6 -16 5 -37 25 -32 33 -37 35 -48 20 -8 -11 -14 -13 -19
-5 -19 31 43 42 76 14z m178 -23 c0 -5 -25 -34 -55 -66 -30 -32 -55 -65 -55
-73 -1 -8 -9 1 -19 20 -18 33 -18 67 0 39 4 -7 5 -17 3 -21 -3 -4 0 -8 6 -8 7
0 10 6 7 14 -3 8 1 20 9 26 11 10 14 10 14 0 0 -10 3 -10 15 0 9 7 13 20 11
27 -4 11 0 13 17 8 19 -5 20 -4 5 5 -10 6 -18 16 -18 22 0 7 4 7 13 0 8 -7 18
-7 27 -2 11 7 11 10 3 11 -7 1 -17 2 -22 3 -6 0 -16 7 -23 15 -11 12 -10 13 4
8 10 -3 20 -1 24 5 7 11 34 -16 34 -33z m100 30 c12 -9 12 -10 -4 -5 -14 5
-16 3 -9 -6 15 -20 22 -57 12 -64 -5 -3 -6 -10 -3 -16 4 -6 1 -9 -7 -6 -8 3
-14 19 -14 39 -1 19 -4 39 -8 45 -13 22 9 30 33 13z m-287 -48 c14 -16 23 -32
20 -35 -4 -3 -1 -6 5 -6 6 0 14 9 17 20 4 11 10 18 15 15 5 -3 12 0 15 6 4 5
13 8 21 5 8 -3 14 1 14 9 0 8 4 15 10 15 6 0 6 -9 1 -22 -4 -13 -6 -29 -3 -37
3 -10 0 -12 -11 -8 -9 3 -19 2 -23 -4 -3 -6 -12 -8 -19 -5 -7 2 -17 0 -23 -6
-7 -7 -16 -6 -30 1 -11 6 -32 11 -46 11 -27 0 -35 8 -41 40 -5 24 8 26 26 4
10 -13 10 -17 -2 -24 -10 -7 -9 -9 8 -8 13 1 19 7 16 15 -4 9 0 11 13 6 16 -6
17 -5 4 9 -8 9 -17 12 -18 7 -2 -5 -8 -7 -13 -3 -10 6 -3 24 10 24 4 0 19 -13
34 -29z m239 -16 c9 -6 16 -14 16 -20 0 -5 8 -14 18 -20 15 -8 18 -19 16 -47
-4 -42 -8 -44 -36 -23 -19 14 -19 15 4 35 23 20 23 20 2 17 -12 -2 -29 -11
-40 -20 -11 -11 -29 -15 -50 -13 -18 3 -32 1 -32 -4 0 -4 -7 -11 -16 -14 -11
-4 -9 3 7 27 70 100 74 103 111 82z m261 -69 c-4 -6 0 -5 9 2 11 9 18 10 23 2
3 -5 0 -10 -7 -10 -9 0 -9 -3 2 -11 12 -8 11 -9 -5 -7 -11 2 -23 8 -28 13 -4
6 -15 0 -26 -15 -11 -14 -23 -22 -26 -18 -4 4 5 18 20 32 27 25 26 52 -2 42
-11 -5 -13 -1 -8 17 5 17 2 15 -13 -8 -11 -18 -16 -34 -11 -39 12 -13 11 -36
-1 -36 -5 0 -9 6 -7 13 1 8 -11 12 -40 11 -38 -1 -41 1 -33 17 6 10 19 17 29
16 11 0 17 -5 15 -9 -3 -4 -1 -8 3 -8 9 0 38 42 34 49 -2 2 3 8 11 12 16 11
71 -48 61 -65z m-640 30 c14 4 18 2 15 -7 -3 -8 -9 -14 -14 -14 -5 -1 -20 -7
-33 -14 -21 -12 -23 -11 -18 3 11 28 -2 47 -25 35 -11 -6 -17 -17 -14 -24 3
-9 -2 -13 -14 -12 -16 1 -16 4 8 32 27 31 27 31 51 13 15 -11 32 -16 44 -12z
m-53 -16 c0 -5 -7 -10 -15 -10 -8 0 -15 5 -15 10 0 6 7 10 15 10 8 0 15 -4 15
-10z m650 -2 c0 6 5 12 10 12 16 0 12 -17 -6 -24 -20 -8 -36 2 -28 16 4 6 10
5 15 -3 6 -10 9 -11 9 -1z m-502 -28 c3 -9 0 -10 -9 -4 -12 7 -12 5 0 -9 7
-10 21 -16 29 -15 9 2 18 -5 20 -14 2 -10 -2 -18 -8 -18 -6 0 -8 5 -4 12 4 7
3 8 -4 4 -7 -4 -23 4 -37 18 -14 15 -30 26 -35 26 -6 0 -10 4 -10 9 0 14 53 6
58 -9z m-149 -11 c4 -12 1 -12 -15 1 -17 14 -18 14 -6 -2 14 -18 7 -43 -9 -33
-5 4 -9 1 -9 -5 0 -6 -5 -8 -10 -5 -16 10 0 27 17 20 13 -4 14 -3 4 9 -14 17
-6 39 12 33 6 -2 13 -10 16 -18z m41 1 c0 -5 -8 -10 -17 -10 -15 0 -14 -2 3
-15 19 -15 19 -15 -1 -31 -11 -8 -19 -20 -17 -25 1 -5 -2 -9 -7 -9 -10 0 -8
55 4 83 8 18 35 24 35 7z m553 -18 c-20 -32 -49 -62 -55 -57 -2 2 -4 -5 -5
-15 -1 -11 3 -23 9 -26 6 -4 8 -2 4 4 -3 6 5 23 19 39 13 15 25 23 25 16 0 -6
-4 -14 -9 -17 -4 -3 -7 -17 -6 -31 3 -20 0 -24 -18 -21 -12 3 -25 5 -28 5 -4
1 -9 15 -11 31 -4 23 -1 30 12 30 22 0 54 36 47 53 -3 8 3 13 14 14 18 2 18 0
2 -25z m-406 -65 c-1 -9 -6 -16 -12 -14 -5 2 -9 11 -7 19 1 9 -5 19 -14 22
-14 5 -15 4 -5 -8 8 -10 9 -16 1 -21 -5 -3 -10 -2 -10 3 0 10 -50 9 -68 -2 -7
-4 -20 -2 -29 6 -9 7 -14 8 -10 2 4 -7 0 -18 -9 -25 -14 -11 -15 -10 -12 7 4
27 16 33 61 29 34 -3 37 -2 22 9 -14 10 -15 16 -6 34 11 21 12 21 55 -11 24
-18 43 -40 43 -50z m453 43 c0 -5 -7 -13 -15 -17 -12 -7 -11 -11 8 -22 21 -13
21 -13 7 4 -14 16 -13 17 8 11 20 -7 27 0 23 26 0 4 8 6 19 5 18 -1 17 -5 -13
-35 -37 -36 -58 -36 -75 3 -16 35 -6 58 19 44 10 -5 19 -14 19 -19z m-195 -1
c16 -8 31 -23 33 -34 3 -18 2 -18 -13 3 -15 21 -43 33 -30 13 3 -5 1 -12 -5
-16 -5 -3 -10 -1 -10 4 0 6 -4 11 -10 11 -5 0 -6 -8 -3 -17 5 -12 1 -11 -15 5
-33 33 -52 19 -52 -41 0 -62 -8 -58 -11 6 -3 43 -5 47 -28 47 l-26 0 27 14
c53 28 93 29 143 5z m-375 -4 c0 -8 -4 -15 -10 -15 -5 0 -10 7 -10 15 0 8 5
15 10 15 6 0 10 -7 10 -15z m237 -57 c-3 -8 -6 -5 -6 6 -1 11 2 17 5 13 3 -3
4 -12 1 -19z m83 2 c0 -5 -4 -10 -10 -10 -5 0 -10 5 -10 10 0 6 5 10 10 10 6
0 10 -4 10 -10z m-205 -20 c-3 -5 -10 -10 -16 -10 -5 0 -9 5 -9 10 0 6 7 10
16 10 8 0 12 -4 9 -10z m275 -2 c0 -7 -5 -20 -10 -28 -8 -11 -9 -9 -8 13 2 26
18 40 18 15z m-150 -14 c0 -8 -5 -12 -10 -9 -6 4 -8 11 -5 16 9 14 15 11 15
-7z m80 2 c0 -23 -16 -27 -17 -5 -1 10 2 19 8 19 5 0 9 -6 9 -14z m190 -21
c-7 -8 -17 -15 -22 -15 -6 0 -5 7 2 15 7 8 17 15 22 15 6 0 5 -7 -2 -15z m0
-95 c0 -5 -5 -10 -11 -10 -5 0 -7 5 -4 10 3 6 8 10 11 10 2 0 4 -4 4 -10z
m-310 -85 c-7 -9 -15 -13 -17 -11 -7 7 7 26 19 26 6 0 6 -6 -2 -15z m45 -35
c-18 -20 -18 -21 1 -14 10 4 16 4 12 -1 -4 -4 -2 -15 5 -23 10 -13 9 -14 -10
-4 -12 7 -25 17 -28 22 -8 12 12 40 28 40 5 0 2 -9 -8 -20z"/>
<path d="M535 930 c-3 -6 1 -7 9 -4 18 7 21 14 7 14 -6 0 -13 -4 -16 -10z"/>
<path d="M555 830 c-8 -13 9 -20 24 -11 10 6 9 10 -3 14 -8 3 -18 2 -21 -3z"/>
<path d="M660 779 c0 -5 5 -7 10 -4 6 3 10 8 10 11 0 2 -4 4 -10 4 -5 0 -10
-5 -10 -11z"/>
<path d="M544 778 c3 -15 26 -23 26 -8 0 6 -4 9 -9 6 -5 -4 -12 -1 -14 4 -3 6
-4 5 -3 -2z"/>
<path d="M525 757 c3 -7 15 -13 26 -14 24 -2 23 0 -8 16 -18 9 -22 9 -18 -2z"/>
<path d="M743 664 c-4 -10 0 -22 10 -29 9 -7 15 -14 12 -16 -2 -3 6 -6 18 -6
19 -2 20 -1 5 8 -10 6 -18 15 -18 20 0 6 5 7 11 4 6 -4 5 2 -3 14 -15 25 -26
27 -35 5z m22 -3 c3 -5 1 -12 -5 -16 -5 -3 -10 1 -10 9 0 18 6 21 15 7z"/>
<path d="M740 520 c0 -5 7 -7 15 -4 8 4 15 8 15 10 0 2 -7 4 -15 4 -8 0 -15
-4 -15 -10z"/>
<path d="M483 635 c-18 -19 -16 -30 2 -15 8 6 20 8 27 4 10 -6 9 -3 -1 9 -16
20 -13 20 -28 2z"/>
<path d="M603 618 c2 -7 10 -14 18 -14 31 -3 33 -5 20 -13 -9 -6 -22 -6 -31
-1 -9 5 -22 5 -31 -1 -7 -5 -9 -9 -4 -9 6 0 3 -5 -5 -11 -13 -9 -13 -10 1 -6
9 3 22 0 28 -6 8 -8 11 -8 11 0 0 6 -6 13 -12 16 -7 2 -10 7 -7 11 4 4 14 0
23 -9 9 -9 16 -12 16 -6 0 5 10 13 22 17 19 6 19 7 4 16 -9 5 -14 13 -11 19 4
5 1 9 -4 9 -6 0 -11 -4 -11 -10 0 -5 -5 -10 -11 -10 -5 0 -7 5 -4 10 3 6 1 10
-5 10 -7 0 -10 -6 -7 -12z"/>
<path d="M677 545 c-4 -8 -3 -16 1 -19 4 -3 9 4 9 15 2 23 -3 25 -10 4z"/>
<path d="M225 500 c-3 -6 1 -7 9 -4 18 7 21 14 7 14 -6 0 -13 -4 -16 -10z"/>
<path d="M317 513 c-11 -10 3 -22 18 -16 11 4 13 1 9 -11 -3 -9 -4 -16 -1 -16
3 0 7 7 11 15 5 15 -26 39 -37 28z"/>
<path d="M826 498 c3 -5 10 -6 15 -3 13 9 11 12 -6 12 -8 0 -12 -4 -9 -9z"/>
<path d="M590 501 c0 -5 7 -12 16 -15 14 -5 15 -4 4 9 -14 17 -20 19 -20 6z"/>
<path d="M630 500 c0 -5 5 -10 11 -10 5 0 7 5 4 10 -3 6 -8 10 -11 10 -2 0 -4
-4 -4 -10z"/>
<path d="M548 493 c7 -3 16 -2 19 1 4 3 -2 6 -13 5 -11 0 -14 -3 -6 -6z"/>
<path d="M351 786 c-14 -17 -1 -28 19 -16 11 7 12 12 4 20 -8 8 -14 7 -23 -4z"/>
<path d="M366 752 c-2 -4 4 -8 14 -8 10 0 16 4 14 8 -3 4 -9 8 -14 8 -5 0 -11
-4 -14 -8z"/>
<path d="M453 355 c2 -17 -3 -20 -33 -18 l-35 2 34 -12 c29 -11 31 -15 18 -26
-19 -15 -19 -67 0 -82 9 -9 13 -9 13 0 0 6 -4 11 -10 11 -5 0 -10 5 -10 10 0
7 6 7 18 2 9 -5 28 -6 42 -1 14 4 20 7 14 8 -6 1 -9 12 -7 26 4 19 0 27 -21
36 -14 7 -23 16 -20 21 3 5 12 4 19 -2 10 -8 15 -8 21 1 4 7 2 15 -4 17 -7 2
-9 9 -5 15 4 8 1 7 -9 -1 -13 -10 -17 -10 -22 0 -3 7 -4 4 -3 -7z m27 -81 c0
-17 -26 -19 -36 -3 -7 12 15 31 28 23 4 -3 8 -12 8 -20z"/>
<path d="M646 333 c-6 -14 -5 -15 5 -6 7 7 10 15 7 18 -3 3 -9 -2 -12 -12z"/>
<path d="M123 313 c-15 -5 -18 -73 -3 -73 6 0 10 6 10 14 0 7 9 16 20 19 13 3
18 11 14 20 -6 18 -24 26 -41 20z"/>
<path d="M533 305 c-30 -34 1 -84 43 -68 24 9 17 43 -8 43 -19 0 -20 -2 -8
-11 12 -8 12 -10 -4 -7 -26 4 -24 20 3 33 11 5 21 13 21 17 0 13 -34 8 -47 -7z"/>
<path d="M182 275 c0 -23 5 -35 14 -35 8 0 11 6 8 15 -4 9 0 15 10 15 9 0 16
-7 16 -15 0 -8 6 -15 13 -15 9 0 12 11 9 35 -2 19 -8 35 -13 35 -5 0 -9 -4 -9
-10 0 -5 -7 -10 -15 -10 -8 0 -15 5 -15 10 0 6 -4 10 -9 10 -5 0 -9 -16 -9
-35z"/>
<path d="M274 296 c-13 -33 0 -51 37 -52 29 -1 35 2 34 20 0 12 -4 27 -8 34
-11 17 -56 15 -63 -2z m49 -11 c7 -18 -9 -29 -30 -21 -12 5 -13 9 -3 21 16 19
26 19 33 0z"/>
<path d="M840 275 c0 -24 5 -35 15 -35 9 0 12 6 9 15 -4 10 0 15 11 15 11 0
15 -5 11 -15 -3 -9 0 -15 9 -15 10 0 14 11 13 35 -1 19 -5 35 -10 35 -4 0 -8
-4 -8 -10 0 -5 -7 -10 -15 -10 -8 0 -15 5 -15 10 0 6 -4 10 -10 10 -5 0 -10
-16 -10 -35z"/>
<path d="M935 283 c11 -21 12 -29 2 -35 -8 -5 -4 -8 10 -8 15 0 21 5 17 14 -3
7 2 21 12 30 19 20 11 34 -10 17 -10 -8 -16 -9 -21 -1 -14 23 -23 8 -10 -17z"/>
</g>
</svg>
